<?xml version="1.0" standalone="no"?>
<!DOCTYPE svg PUBLIC "-//W3C//DTD SVG 20010904//EN"
 "http://www.w3.org/TR/2001/REC-SVG-20010904/DTD/svg10.dtd">
<svg version="1.0" xmlns="http://www.w3.org/2000/svg"
 width="227.000000pt" height="46.000000pt" viewBox="0 0 227.000000 46.000000"
 preserveAspectRatio="xMidYMid meet">

<g transform="translate(0.000000,46.000000) scale(0.100000,-0.100000)"
fill="#9A5EC9" stroke="none">
<path d="M130 426 c-42 -28 -84 -100 -105 -181 -20 -79 -19 -128 4 -174 37
-72 110 -76 166 -9 40 47 31 67 -10 25 -65 -67 -125 -41 -125 53 0 137 93 310
154 287 21 -8 21 -65 0 -95 -20 -30 -3 -57 27 -42 38 21 43 129 7 152 -25 16
-83 8 -118 -16z"/>
<path d="M993 443 c-7 -2 -13 -12 -13 -20 0 -13 8 -14 40 -9 22 3 40 5 40 4 0
-2 -18 -70 -39 -151 -54 -201 -85 -258 -128 -231 -38 24 -27 83 24 131 34 33
39 63 10 63 -7 0 -38 -25 -69 -55 -59 -58 -94 -69 -119 -39 -12 15 -10 20 16
38 69 50 97 105 60 120 -36 13 -92 -31 -118 -95 -15 -38 -63 -82 -81 -76 -18
7 -6 58 30 133 43 85 52 169 20 169 -20 0 -30 -24 -56 -125 -10 -36 -14 -41
-21 -27 -15 26 -54 20 -86 -11 -27 -27 -73 -57 -76 -50 -36 71 -51 84 -90 75
-17 -5 -32 -21 -46 -50 -53 -110 15 -197 90 -114 16 17 39 43 52 57 l22 25 3
-30 c6 -65 11 -75 40 -75 15 0 37 7 49 15 20 14 23 14 33 -5 15 -28 33 -25 73
10 l34 29 22 -29 c25 -34 56 -38 101 -15 l30 16 0 -40 c0 -45 26 -71 71 -71
68 0 116 82 159 271 17 72 30 133 30 135 0 3 11 2 24 -2 30 -7 43 12 17 25
-20 11 -125 14 -148 4z m-413 -209 c11 -32 10 -39 -7 -62 -26 -35 -47 -47 -68
-38 -23 8 -15 64 15 106 28 40 46 38 60 -6z m215 26 c3 -5 -8 -24 -24 -42 -33
-36 -40 -25 -16 22 16 31 29 37 40 20z m-412 -21 c8 -28 -2 -51 -21 -47 -21 4
-36 32 -29 52 9 23 44 20 50 -5z m-24 -101 c-14 -27 -47 -23 -55 6 -9 38 3 47
35 28 24 -13 27 -20 20 -34z"/>
<path d="M2217 423 c-4 -3 -7 -15 -7 -26 0 -11 -10 -60 -21 -110 -18 -76 -28
-97 -59 -131 -21 -23 -42 -37 -46 -33 -4 4 -3 34 2 67 6 33 6 60 2 60 -4 0 -8
9 -8 19 0 55 -81 20 -120 -52 -14 -25 -37 -58 -50 -72 -27 -29 -54 -34 -46 -7
2 9 10 36 17 60 16 56 0 97 -34 86 -12 -3 -30 -13 -39 -22 -16 -14 -18 -13
-18 2 0 33 -34 13 -43 -26 -10 -44 -71 -118 -98 -118 -24 0 -24 14 2 56 27 44
22 78 -12 82 -22 3 -25 7 -21 27 3 17 -1 27 -13 32 -23 8 -58 -32 -50 -58 8
-24 -15 -66 -59 -108 l-35 -34 -9 23 c-6 16 -4 32 5 49 7 14 13 41 13 59 0 26
-4 33 -17 30 -13 -2 -23 -23 -35 -72 -17 -67 -29 -86 -56 -86 -29 0 -27 29 5
143 8 27 -26 21 -38 -7 -9 -19 -58 -54 -63 -44 -26 62 -52 84 -89 75 -29 -8
-67 -76 -67 -123 0 -40 26 -74 56 -74 24 0 38 12 104 88 28 32 40 28 33 -12
-9 -58 47 -95 93 -62 16 13 21 12 36 -1 11 -10 22 -12 35 -5 10 5 23 7 30 5 6
-2 30 27 53 65 33 56 45 69 61 65 24 -7 24 -12 -3 -67 -18 -37 -19 -47 -8 -60
20 -25 56 -19 94 15 l35 30 -9 -30 c-9 -34 -8 -36 20 -21 11 6 21 26 25 50 7
43 48 100 71 100 17 0 17 -11 0 -76 -22 -83 12 -110 73 -58 22 18 31 22 31 11
0 -8 7 -20 15 -27 12 -10 22 -8 54 7 37 19 39 19 50 1 15 -25 25 -23 64 12 33
29 34 29 30 6 -4 -22 12 -45 23 -33 7 6 84 304 84 322 0 15 -31 21 -43 8z
m-162 -218 c-6 -33 -41 -75 -63 -75 -22 0 -10 71 19 111 21 30 23 31 36 13 9
-12 12 -31 8 -49z m-832 34 c8 -28 -2 -51 -21 -47 -21 4 -36 32 -29 52 9 23
44 20 50 -5z m-24 -101 c-14 -27 -47 -23 -55 6 -9 38 3 47 35 28 24 -13 27
-20 20 -34z"/>
</g>
</svg>
